<?xml version="1.0" encoding="UTF-8"?>
<svg id="Layer_2" data-name="Layer 2" xmlns="http://www.w3.org/2000/svg" viewBox="0 0 240 237.2">
  <defs>
    <style>
      .cls-1 {
        fill: #fff;
      }

      .cls-2 {
        fill: #cad8e5;
      }

      .cls-3 {
        opacity: .2;
      }

      .cls-4 {
        fill: #1089ff;
      }
    </style>
  </defs>
  <g id="Layer_1-2" data-name="Layer 1">
    <g>
      <path class="cls-2" d="M240,90.8v.1c0,19.3-11.4,36.1-28.4,44.6-7.5,3.9-16.1,6.1-25.3,6.1H41.5C18.6,141.6,0,124.1,0,102.4v-.1c0-21.7,18.6-39.2,41.5-39.2h5.8c0-13.7,11.8-24.9,26.4-24.9,2,0,3.9,.3,5.8,.7,7.6-16.5,22.3-29.4,40.5-35.3,7.1-2.3,14.7-3.6,22.6-3.6,19.1,0,36.4,7.3,48.8,19.1,7.5,7,13.2,15.7,16.6,25.4,18.9,7.9,32,25.7,32,46.3Z"/>
      <path class="cls-4" d="M120,203.4c-19,0-13-22.1,0-36.4,13,14.3,19,36.4,0,36.4Z"/>
      <path class="cls-4" d="M183.67,237.2c19.03,0,13.04-22.07,0-36.44-13.04,14.36-19.03,36.44,0,36.44Z"/>
      <path class="cls-4" d="M56.3,237.2c-19,0-13-22.1,0-36.4,13.1,14.3,19.1,36.4,0,36.4Z"/>
      <g class="cls-3">
        <path class="cls-1" d="M56.3,200.8c13.1,14.3,19.1,36.4,0,36.4s-13-22.1,0-36.4Z"/>
      </g>
      <g class="cls-3">
        <path class="cls-1" d="M120,3.6V141.6H41.5C18.6,141.6,0,124.1,0,102.4v-.1c0-21.7,18.6-39.2,41.5-39.2h5.8c0-13.7,11.8-24.9,26.4-24.9,2,0,3.9,.3,5.8,.7,7.6-16.5,22.3-29.4,40.5-35.3Z"/>
      </g>
      <g class="cls-3">
        <path class="cls-1" d="M120,167v36.4c-19,0-13-22.1,0-36.4Z"/>
      </g>
    </g>
  </g>
</svg>